# File created by Blade
# Date/Time:  Wed Apr 08 17:24:36 2015
# Frame Rate: 120.000 fps
#------------------------------------------------------
:FULLY-SPECIFIED
:DEGREES
1054
root 11.323960 39.130025 6.210511 201.881318 -11.811542 -135.562562
Spine -15.277118 8.101909 16.490190
Head -9.953969 6.909361 25.366129
LeftShoulder -7.421025 21.867548 21.857516
LeftArm 4.796933 20.983989 -78.325969
LeftForeArm 10.215638 -0.000000 28.296813
LeftHand -14.791701 -0.000000 -12.020805
LeftHandThumb1 -26.253704 0.000000 33.147579
RightShoulder -41.774513 -46.997308 26.768305
RightArm 44.716302 -4.861823 62.480880
RightForeArm 48.994111 0.000000 37.373670
RightHand -2.543070 -0.000000 11.621891
RightHandThumb1 -24.326973 -0.000000 -32.862282
LeftUpLeg -60.807924 51.297459 -4.052913
LeftLeg 15.899976 -0.000000 -0.000000
LeftFoot -10.060303 26.193368 -6.634983
LeftToeBase 4.079940 -0.000000 -0.000000
RightUpLeg -89.946029 -37.088885 -5.774141
RightLeg 151.356550 -0.000000 -0.000000
RightFoot 12.451014 7.099241 14.975273
RightToeBase -5.519300 -0.000000 0.000000
1055
root 11.314648 39.127981 6.218777 201.956440 -11.637276 -135.527662
Spine -15.119569 8.135625 16.433050
Head -9.996571 6.824155 25.488560
LeftShoulder -7.391612 21.790257 21.880833
LeftArm 4.714099 20.986624 -78.363296
LeftForeArm 10.425707 -0.000000 28.108183
LeftHand -14.754777 -0.000000 -12.148626
LeftHandThumb1 -26.253704 0.000000 33.147579
RightShoulder -41.803559 -46.989870 26.841425
RightArm 44.642706 -4.804590 62.519148
RightForeArm 48.954436 0.000000 37.453453
RightHand -2.574164 0.000000 11.650192
RightHandThumb1 -24.326973 -0.000000 -32.862282
LeftUpLeg -60.875813 51.395740 -4.093791
LeftLeg 15.933474 -0.000000 -0.000000
LeftFoot -10.035680 26.312060 -6.526763
LeftToeBase 3.991981 -0.000000 -0.000000
RightUpLeg -89.658408 -37.157121 -5.976703
RightLeg 151.386448 -0.000000 -0.000000
RightFoot 12.450329 7.077497 14.822500
RightToeBase -5.662668 -0.000000 0.000000
1056
root 11.305561 39.125770 6.226945 202.030996 -11.472830 -135.493280
Spine -14.964277 8.165461 16.377701
Head -10.026215 6.771059 25.609099
LeftShoulder -7.390040 21.793309 21.893594
LeftArm 4.739193 21.030421 -78.349541
LeftForeArm 10.453587 -0.000000 27.958667
LeftHand -14.809177 0.000000 -12.211349
LeftHandThumb1 -26.253704 0.000000 33.147579
RightShoulder -41.852676 -46.990865 26.937938
RightArm 44.605495 -4.771806 62.503345
RightForeArm 49.045537 -0.000000 37.486396
RightHand -2.491884 -0.000000 11.598323
RightHandThumb1 -24.326973 -0.000000 -32.862282
LeftUpLeg -60.953209 51.490692 -4.142375
LeftLeg 15.971195 -0.000000 -0.000000
LeftFoot -10.003821 26.416863 -6.425079
LeftToeBase 3.850777 -0.000000 -0.000000
RightUpLeg -89.359133 -37.246014 -6.181237
RightLeg 151.424307 -0.000000 -0.000000
RightFoot 12.435103 7.053219 14.703102
RightToeBase -5.713500 -0.000000 0.000000
1057
root 11.296273 39.123462 6.235331 202.109035 -11.309016 -135.456635
Spine -14.817670 8.199898 16.327452
Head -10.063472 6.732848 25.715945
LeftShoulder -7.376296 21.799551 21.906342
LeftArm 4.752983 21.125382 -78.340969
LeftForeArm 10.509602 -0.000000 27.804933
LeftHand -14.787142 -0.000000 -12.103078
LeftHandThumb1 -26.253704 0.000000 33.147579
RightShoulder -41.893689 -47.013493 27.023657
RightArm 44.541328 -4.747224 62.493106
RightForeArm 49.218978 -0.000000 37.548375
RightHand -2.583712 -0.000000 11.292582
RightHandThumb1 -24.326973 -0.000000 -32.862282
LeftUpLeg -60.994609 51.563087 -4.147627
LeftLeg 15.999976 -0.000000 -0.000000
LeftFoot -9.983069 26.548195 -6.319760
LeftToeBase 3.808232 -0.000000 -0.000000
RightUpLeg -89.056656 -37.336591 -6.398416
RightLeg 151.461664 -0.000000 -0.000000
RightFoot 12.406835 7.072714 14.715376
RightToeBase -5.550308 -0.000000 0.000000
1058
root 11.287062 39.121180 6.243640 202.193020 -11.127694 -135.427027
Spine -14.675420 8.255437 16.262744
Head -10.076277 6.657309 25.827670
LeftShoulder -7.376167 21.800211 21.913427
LeftArm 4.788371 21.275411 -78.308767
LeftForeArm 10.569933 0.000000 27.649539
LeftHand -14.806156 0.000000 -12.104900
LeftHandThumb1 -26.253704 0.000000 33.147579
RightShoulder -41.938949 -47.004552 27.063591
RightArm 44.470647 -4.758679 62.519735
RightForeArm 49.257028 -0.000000 37.574881
RightHand -2.656257 -0.000000 11.273478
RightHandThumb1 -24.326973 -0.000000 -32.862282
LeftUpLeg -61.032788 51.641110 -4.160450
LeftLeg 16.022871 -0.000000 -0.000000
LeftFoot -9.959406 26.706113 -6.219846
LeftToeBase 3.709809 -0.000000 -0.000000
RightUpLeg -88.779436 -37.422412 -6.592852
RightLeg 151.510865 -0.000000 -0.000000
RightFoot 12.349061 7.053707 14.645813
RightToeBase -5.693989 -0.000000 0.000000
1059
root 11.277161 39.120582 6.250391 202.308479 -10.936811 -135.402713
Spine -14.584482 8.327528 16.176270
Head -10.074655 6.589495 25.947958
LeftShoulder -7.363996 21.786215 21.942666
LeftArm 4.802452 21.492369 -78.282029
LeftForeArm 10.575865 0.000000 27.500998
LeftHand -14.825559 0.000000 -12.171729
LeftHandThumb1 -26.253704 0.000000 33.147579
RightShoulder -42.008174 -46.997832 27.132612
RightArm 44.404240 -4.780737 62.538566
RightForeArm 49.343415 0.000000 37.582390
RightHand -2.590209 -0.000000 11.225816
RightHandThumb1 -24.326973 -0.000000 -32.862282
LeftUpLeg -61.072432 51.705572 -4.169597
LeftLeg 16.039421 -0.000000 -0.000000
LeftFoot -9.925867 26.878162 -6.115077
LeftToeBase 3.622674 -0.000000 -0.000000
RightUpLeg -88.531086 -37.504381 -6.777698
RightLeg 151.559995 -0.000000 -0.000000
RightFoot 12.305543 7.089717 14.640196
RightToeBase -5.735128 -0.000000 0.000000
1060
root 11.267536 39.120381 6.257098 202.390296 -10.790942 -135.375851
Spine -14.472654 8.327757 16.128214
Head -10.031585 6.541131 26.074134
LeftShoulder -7.354442 21.761415 21.951289
LeftArm 4.784363 21.670858 -78.272415
LeftForeArm 10.591963 -0.000000 27.356508
LeftHand -14.754040 -0.000000 -12.456685
LeftHandThumb1 -26.253704 0.000000 33.147579
RightShoulder -42.027738 -47.029452 27.149404
RightArm 44.339339 -4.768498 62.629965
RightForeArm 49.343692 -0.000000 37.579063
RightHand -2.600021 0.000000 11.292609
RightHandThumb1 -24.326973 -0.000000 -32.862282
LeftUpLeg -61.062721 51.717497 -4.112108
LeftLeg 16.064927 -0.000000 -0.000000
LeftFoot -9.891115 27.088292 -6.031997
LeftToeBase 3.540817 -0.000000 -0.000000
RightUpLeg -88.205636 -37.636021 -6.985666
RightLeg 151.608756 -0.000000 -0.000000
RightFoot 12.247912 7.161222 14.552458
RightToeBase -5.908150 -0.000000 0.000000
1061
root 11.257370 39.120784 6.262405 202.470180 -10.632435 -135.351080
Spine -14.362532 8.352820 16.063044
Head -9.985615 6.482424 26.221908
LeftShoulder -7.344938 21.755338 21.960263
LeftArm 4.786993 21.827521 -78.257160
LeftForeArm 10.548421 -0.000000 27.255160
LeftHand -14.886455 0.000000 -12.258917
LeftHandThumb1 -26.253704 0.000000 33.147579
RightShoulder -42.039023 -47.023226 27.149503
RightArm 44.221406 -4.730639 62.815763
RightForeArm 49.256687 -0.000000 37.588926
RightHand -2.592130 -0.000000 11.362675
RightHandThumb1 -24.326973 -0.000000 -32.862282
LeftUpLeg -61.022096 51.735507 -4.032250
LeftLeg 16.076507 -0.000000 -0.000000
LeftFoot -9.849167 27.321550 -5.938311
LeftToeBase 3.492398 -0.000000 -0.000000
RightUpLeg -87.861629 -37.753759 -7.223042
RightLeg 151.649621 -0.000000 -0.000000
RightFoot 12.234522 7.264948 14.535639
RightToeBase -6.344109 -0.000000 0.000000
1062
root 11.249120 39.123219 6.268371 202.578198 -10.470327 -135.328491
Spine -14.288718 8.405082 15.976289
Head -9.954784 6.391371 26.373710
LeftShoulder -7.307071 21.693781 21.995821
LeftArm 4.726404 22.029614 -78.252660
LeftForeArm 10.537005 -0.000000 27.160848
LeftHand -14.859588 -0.000000 -12.284921
LeftHandThumb1 -26.253704 0.000000 33.147579
RightShoulder -42.095000 -47.024433 27.200690
RightArm 44.120377 -4.682321 63.000281
RightForeArm 49.254196 -0.000000 37.601062
RightHand -2.517091 -0.000000 11.340474
RightHandThumb1 -24.326973 -0.000000 -32.862282
LeftUpLeg -61.035899 51.764692 -4.009675
LeftLeg 16.081569 -0.000000 -0.000000
LeftFoot -9.806640 27.512419 -5.855233
LeftToeBase 3.468983 -0.000000 -0.000000
RightUpLeg -87.574717 -37.879303 -7.397450
RightLeg 151.688149 -0.000000 -0.000000
RightFoot 12.215264 7.341116 14.435207
RightToeBase -6.440030 -0.000000 0.000000
1063
root 11.239750 39.126703 6.273923 202.700070 -10.326406 -135.302076
Spine -14.237788 8.415154 15.905604
Head -9.917399 6.338517 26.537051
LeftShoulder -7.286333 21.673537 22.010140
LeftArm 4.634967 22.109519 -78.272031
LeftForeArm 10.610674 -0.000000 27.157004
LeftHand -14.698146 -0.000000 -12.245221
LeftHandThumb1 -26.253704 0.000000 33.147579
RightShoulder -42.119888 -47.014545 27.244354
RightArm 44.021179 -4.671874 63.084932
RightForeArm 49.491469 -0.000000 37.668190
RightHand -2.725628 -0.000000 11.150087
RightHandThumb1 -24.326973 -0.000000 -32.862282
LeftUpLeg -61.075813 51.790075 -4.019900
LeftLeg 16.055884 -0.000000 -0.000000
LeftFoot -9.755741 27.690599 -5.788065
LeftToeBase 3.417090 -0.000000 -0.000000
RightUpLeg -87.282545 -37.990231 -7.573382
RightLeg 151.718676 -0.000000 -0.000000
RightFoot 12.223991 7.410245 14.375789
RightToeBase -6.517500 -0.000000 0.000000
1064
root 11.229398 39.130612 6.277594 202.775697 -10.221676 -135.243104
Spine -14.134352 8.377554 15.914316
Head -9.897078 6.278870 26.656696
LeftShoulder -7.335921 21.663992 21.978841
LeftArm 4.588077 22.194942 -78.286170
LeftForeArm 10.781943 0.000000 27.138492
LeftHand -14.594413 -0.000000 -12.576406
LeftHandThumb1 -26.253704 0.000000 33.147579
RightShoulder -42.198987 -47.019839 27.343686
RightArm 43.996401 -4.678837 63.031410
RightForeArm 49.648110 -0.000000 37.696582
RightHand -2.640569 -0.000000 11.079127
RightHandThumb1 -24.326973 -0.000000 -32.862282
LeftUpLeg -61.064377 51.814533 -3.967865
LeftLeg 16.001588 -0.000000 -0.000000
LeftFoot -9.700787 27.858884 -5.719562
LeftToeBase 3.363180 -0.000000 -0.000000
RightUpLeg -86.904923 -38.131869 -7.743929
RightLeg 151.725754 -0.000000 -0.000000
RightFoot 12.290890 7.450805 14.400250
RightToeBase -6.523938 -0.000000 0.000000
1065
root 11.220285 39.134946 6.283306 202.853504 -10.041617 -135.172453
Spine -14.009459 8.412851 15.896746
Head -9.898896 6.254570 26.778161
LeftShoulder -7.368831 21.669785 21.953279
LeftArm 4.551591 22.312481 -78.286217
LeftForeArm 10.670011 -0.000000 27.146771
LeftHand -14.649164 0.000000 -12.289274
LeftHandThumb1 -26.253704 0.000000 33.147579
RightShoulder -42.214240 -46.992291 27.362614
RightArm 43.948096 -4.680583 63.046419
RightForeArm 49.913596 -0.000000 37.555258
RightHand -2.417418 -0.000000 11.484929
RightHandThumb1 -24.326973 -0.000000 -32.862282
LeftUpLeg -61.073475 51.935737 -3.972880
LeftLeg 15.936204 -0.000000 -0.000000
LeftFoot -9.692497 27.957046 -5.669247
LeftToeBase 3.387843 -0.000000 -0.000000
RightUpLeg -86.574835 -38.171722 -7.904293
RightLeg 151.729068 -0.000000 -0.000000
RightFoot 12.389342 7.484453 14.461885
RightToeBase -6.717744 -0.000000 0.000000
1066
root 11.210549 39.138914 6.293149 203.034410 -9.829638 -135.149211
Spine -14.002485 8.499429 15.786140
Head -9.882796 6.223626 26.902434
LeftShoulder -7.369155 21.733132 21.946959
LeftArm 4.530377 22.400120 -78.264515
LeftForeArm 10.632755 -0.000000 27.220273
LeftHand -14.679723 -0.000000 -12.356090
LeftHandThumb1 -26.253704 0.000000 33.147579
RightShoulder -42.279861 -46.967259 27.429075
RightArm 43.908702 -4.658479 63.085289
RightForeArm 49.932154 0.000000 37.436432
RightHand -2.486224 -0.000000 11.728417
RightHandThumb1 -24.326973 -0.000000 -32.862282
LeftUpLeg -61.181346 52.048323 -4.120078
LeftLeg 15.824070 -0.000000 -0.000000
LeftFoot -9.639048 28.065732 -5.540309
LeftToeBase 3.471744 -0.000000 -0.000000
RightUpLeg -86.387069 -38.231747 -8.028236
RightLeg 151.738915 -0.000000 -0.000000
RightFoot 12.460541 7.503768 14.505582
RightToeBase -6.751514 -0.000000 0.000000
